HIERARCHY
ROOT hip
{
  OFFSET 0 0 0
  CHANNELS 6 Xposition Yposition Zposition Zrotation Yrotation Xrotation
  JOINT abdomen
  {
    OFFSET 0 20.6881 -0.73152
    CHANNELS 3 Zrotation Xrotation Yrotation
    JOINT chest
    {
      OFFSET 0 11.7043 -0.48768
      CHANNELS 3 Zrotation Xrotation Yrotation
      JOINT neck
      {
        OFFSET 0 22.1894 -2.19456
        CHANNELS 3 Zrotation Xrotation Yrotation
        JOINT head
        {
          OFFSET -0.24384 7.07133 1.2192
          CHANNELS 3 Zrotation Xrotation Yrotation
          JOINT leftEye
          {
            OFFSET 4.14528 8.04674 8.04672
            CHANNELS 3 Zrotation Xrotation Yrotation
            End Site
            {
              OFFSET 1 0 0
            }
          }
          JOINT rightEye
          {
            OFFSET -3.6576 8.04674 8.04672
            CHANNELS 3 Zrotation Xrotation Yrotation
            End Site
            {
              OFFSET 1 0 0
            }
          }
        }
      }
      JOINT rCollar
      {
        OFFSET -2.68224 19.2634 -4.8768
        CHANNELS 3 Zrotation Xrotation Yrotation
        JOINT rShldr
        {
          OFFSET -8.77824 -1.95073 1.46304
          CHANNELS 3 Zrotation Xrotation Yrotation
          JOINT rForeArm
          {
            OFFSET -28.1742 -1.7115 0.48768
            CHANNELS 3 Zrotation Xrotation Yrotation
            JOINT rHand
            {
              OFFSET -22.5879 0.773209 7.07136
              CHANNELS 3 Zrotation Xrotation Yrotation
              JOINT rThumb1
              {
                OFFSET -1.2192 -0.487915 3.41376
                CHANNELS 3 Zrotation Xrotation Yrotation
                JOINT rThumb2
                {
                  OFFSET -3.37035 -0.52449 3.41376
                  CHANNELS 3 Zrotation Xrotation Yrotation
                  End Site
                  {
                    OFFSET -1.78271 -1.18214 1.43049
                  }
                }
              }
              JOINT rIndex1
              {
                OFFSET -7.75947 0.938293 5.60832
                CHANNELS 3 Zrotation Xrotation Yrotation
                JOINT rIndex2
                {
                  OFFSET -2.54057 -0.884171 1.56538
                  CHANNELS 3 Zrotation Xrotation Yrotation
                  End Site
                  {
                    OFFSET -1.62519 -0.234802 1.16502
                  }
                }
              }
              JOINT rMid1
              {
                OFFSET -8.24714 1.18213 3.41376
                CHANNELS 3 Zrotation Xrotation Yrotation
                JOINT rMid2
                {
                  OFFSET -3.10165 -0.590103 1.0647
                  CHANNELS 3 Zrotation Xrotation Yrotation
                  End Site
                  {
                    OFFSET -2.48547 -0.328903 0.83742
                  }
                }
              }
              JOINT rRing1
              {
                OFFSET -8.82822 0.546677 1.51678
                CHANNELS 3 Zrotation Xrotation Yrotation
                JOINT rRing2
                {
                  OFFSET -2.60934 -0.819778 -0.0198488
                  CHANNELS 3 Zrotation Xrotation Yrotation
                  End Site
                  {
                    OFFSET -2.33842 -0.294052 0.168128
                  }
                }
              }
              JOINT rPinky1
              {
                OFFSET -8.27202 -0.0477905 -0.4584
                CHANNELS 3 Zrotation Xrotation Yrotation
                JOINT rPinky2
                {
                  OFFSET -1.82734 -0.647385 -0.700984
                  CHANNELS 3 Zrotation Xrotation Yrotation
                  End Site
                  {
                    OFFSET -1.69225 -0.51767 -0.607171
                  }
                }
              }
            }
          }
        }
      }
      JOINT lCollar
      {
        OFFSET 2.68224 19.2634 -4.8768
        CHANNELS 3 Zrotation Xrotation Yrotation
        JOINT lShldr
        {
          OFFSET 8.77824 -1.95073 1.46304
          CHANNELS 3 Zrotation Xrotation Yrotation
          JOINT lForeArm
          {
            OFFSET 28.1742 -1.7115 0.48768
            CHANNELS 3 Zrotation Xrotation Yrotation
            JOINT lHand
            {
              OFFSET 22.5879 0.773209 7.07136
              CHANNELS 3 Zrotation Xrotation Yrotation
              JOINT lThumb1
              {
                OFFSET 1.2192 -0.487915 3.41376
                CHANNELS 3 Zrotation Xrotation Yrotation
                JOINT lThumb2
                {
                  OFFSET 3.37035 -0.52449 3.41376
                  CHANNELS 3 Zrotation Xrotation Yrotation
                  End Site
                  {
                    OFFSET 1.78271 -1.18214 1.43049
                  }
                }
              }
              JOINT lIndex1
              {
                OFFSET 7.75947 0.938293 5.60832
                CHANNELS 3 Zrotation Xrotation Yrotation
                JOINT lIndex2
                {
                  OFFSET 2.54057 -0.884171 1.56538
                  CHANNELS 3 Zrotation Xrotation Yrotation
                  End Site
                  {
                    OFFSET 1.62519 -0.234802 1.16502
                  }
                }
              }
              JOINT lMid1
              {
                OFFSET 8.24714 1.18213 3.41376
                CHANNELS 3 Zrotation Xrotation Yrotation
                JOINT lMid2
                {
                  OFFSET 3.10165 -0.590103 1.0647
                  CHANNELS 3 Zrotation Xrotation Yrotation
                  End Site
                  {
                    OFFSET 2.48547 -0.328903 0.83742
                  }
                }
              }
              JOINT lRing1
              {
                OFFSET 8.82822 0.546677 1.51678
                CHANNELS 3 Zrotation Xrotation Yrotation
                JOINT lRing2
                {
                  OFFSET 2.60934 -0.819778 -0.0198488
                  CHANNELS 3 Zrotation Xrotation Yrotation
                  End Site
                  {
                    OFFSET 2.33842 -0.294052 0.168128
                  }
                }
              }
              JOINT lPinky1
              {
                OFFSET 8.27202 -0.0477905 -0.4584
                CHANNELS 3 Zrotation Xrotation Yrotation
                JOINT lPinky2
                {
                  OFFSET 1.82734 -0.647385 -0.700984
                  CHANNELS 3 Zrotation Xrotation Yrotation
                  End Site
                  {
                    OFFSET 1.69225 -0.51767 -0.607171
                  }
                }
              }
            }
          }
        }
      }
    }
  }
  JOINT rButtock
  {
    OFFSET -8.77824 4.35084 1.2192
    CHANNELS 3 Zrotation Xrotation Yrotation
    JOINT rThigh
    {
      OFFSET 0 -1.70687 -2.19456
      CHANNELS 3 Zrotation Xrotation Yrotation
      JOINT rShin
      {
        OFFSET 0 -36.8199 0.73152
        CHANNELS 3 Zrotation Xrotation Yrotation
        JOINT rFoot
        {
          OFFSET 0.73152 -45.1104 -5.12064
          CHANNELS 3 Zrotation Xrotation Yrotation
          End Site
          {
            OFFSET -1.1221 -3.69964 12.103
          }
        }
      }
    }
  }
  JOINT lButtock
  {
    OFFSET 8.77824 4.35084 1.2192
    CHANNELS 3 Zrotation Xrotation Yrotation
    JOINT lThigh
    {
      OFFSET 0 -1.70687 -2.19456
      CHANNELS 3 Zrotation Xrotation Yrotation
      JOINT lShin
      {
        OFFSET 0 -36.8199 0.73152
        CHANNELS 3 Zrotation Xrotation Yrotation
        JOINT lFoot
        {
          OFFSET -0.73152 -45.1104 -5.12064
          CHANNELS 3 Zrotation Xrotation Yrotation
          End Site
          {
            OFFSET 1.1221 -3.69964 12.103
          }
        }
      }
    }
  }
}
MOTION
Frames:	4
Frame Time:	0.03333
-88.16767736751407 45.87225739038473 -35.22043910510474 -18.60359001159668 -27.995887756347656 14.377914428710938 11.874818801879883 9.958568572998047 5.141027450561523 2.207735061645508 -7.176283836364746 1.4918816089630127 -0.5380797982215881 12.755502700805664 5.099207401275635 4.206911087036133 -23.507722854614258 11.033120155334473 0.8376419544219971 0.5891484618186951 -1.0473138093948364 -0.6844407320022583 -0.8958568572998047 -0.09039121121168137 0.9061224460601807 -0.5997052192687988 -0.15941213071346283 85.92218017578125 47.80042266845703 -37.89402389526367 -29.55771827697754 -39.24844741821289 86.70914459228516 -3.7006070613861084 -43.63694381713867 -8.008966445922852 -1.1402220726013184 0.45319312810897827 -0.11380017548799515 -0.34190860390663147 0.12491342425346375 -0.5393773913383484 0.35757386684417725 0.8700369596481323 -0.05871080979704857 7.511385917663574 5.125978469848633 1.435365915298462 -0.7946084141731262 0.1299276351928711 -0.09842678904533386 2.5879416465759277 0.8861574530601501 0.5055896639823914 0.0020028548315167427 0.08617451041936874 -0.8731389045715332 9.330911636352539 1.2237944602966309 -0.17882591485977173 -0.9367238283157349 -0.34047648310661316 -0.2231598198413849 2.129314661026001 0.09214143455028534 -0.36606499552726746 0.981235146522522 -0.14541926980018616 -0.4082711935043335 -45.11991882324219 23.882356643676758 -34.038570404052734 16.521533966064453 -8.83005142211914 -31.195308685302734 1.5493017435073853 19.474042892456055 -2.1376149654388428 -0.485225111246109 0.26694899797439575 0.2888626456260681 -0.8361591696739197 0.3900314271450043 -0.8069467544555664 0.1341380476951599 0.6686900854110718 0.16526228189468384 -8.289918899536133 4.8441643714904785 0.30344343185424805 -0.21595080196857452 1.0774832963943481 -0.8207390308380127 -3.737553834915161 2.027927875518799 0.008894594386219978 0.16049979627132416 0.4201144874095917 -0.17487725615501404 -10.509472846984863 0.8437212705612183 -0.3098139464855194 0.4619016647338867 -0.3763156831264496 -0.5601106882095337 -1.3235257863998413 -0.3287038803100586 0.08829154074192047 0.3772799074649811 0.40613511204719543 -0.7663658261299133 -14.35512638092041 9.977927207946777 -1.9061633348464966 -0.7145155072212219 34.02947235107422 2.8745713233947754 -10.208646774291992 -17.650331497192383 -31.863801956176758 -0.46552401781082153 -0.3516031801700592 -0.5290996432304382 87.82427978515625 -51.150760650634766 74.49970245361328 6.561581611633301 81.40193176269531 -6.826983451843262 -2.098639726638794 -2.0455148220062256 -4.358216285705566
-90.11069906019145 45.98363387008555 -35.869747516735714 -18.514476776123047 -27.53084945678711 14.501975059509277 11.827656745910645 10.058095932006836 5.238584518432617 2.260098457336426 -7.107306003570557 1.545409083366394 -0.6754298806190491 12.849873542785645 4.858002662658691 4.275951385498047 -23.541168212890625 10.593518257141113 0.9001476168632507 0.6401684880256653 -0.9995645880699158 -0.7197861075401306 -0.922070324420929 -0.036458682268857956 0.9094231128692627 -0.607638955116272 -0.1328268200159073 84.12821197509766 47.627052307128906 -35.78021240234375 -29.603309631347656 -38.73236846923828 86.00589752197266 -3.4130477905273438 -42.16901779174805 -7.466713905334473 -1.1363469362258911 0.4459688067436218 -0.16918757557868958 -0.29004424810409546 0.10097707808017731 -0.4998592734336853 0.3723049461841583 0.8674232363700867 -0.08834633976221085 7.479485034942627 5.131248474121094 1.5036630630493164 -0.7816291451454163 0.12841510772705078 -0.07194630801677704 2.628258466720581 0.9298821687698364 0.6021569967269897 -0.010618043132126331 0.05799899622797966 -0.8079005479812622 9.297357559204102 1.2721692323684692 -0.12061822414398193 -0.9278919696807861 -0.41028326749801636 -0.21437259018421173 2.1404478549957275 0.15021051466464996 -0.31715497374534607 0.9723773002624512 -0.20691600441932678 -0.4002346992492676 -45.211891174316406 25.42742919921875 -33.4173469543457 16.840557098388672 -9.27178955078125 -32.24639129638672 1.4724640846252441 17.18558692932129 -1.7675398588180542 -0.4950351417064667 0.24654382467269897 0.3636792302131653 -0.8593453168869019 0.31656989455223083 -0.7871659994125366 0.06383488327264786 0.6413307785987854 0.27634385228157043 -8.190898895263672 4.810439109802246 0.36230069398880005 -0.20460306107997894 1.0788190364837646 -0.7837589979171753 -3.7717456817626953 2.1069304943084717 0.05149417370557785 0.1885775476694107 0.3931601345539093 -0.13273857533931732 -10.486942291259766 0.8672633171081543 -0.30498841404914856 0.4480929672718048 -0.40828484296798706 -0.5326002240180969 -1.2649338245391846 -0.33896714448928833 0.14451470971107483 0.3700651526451111 0.3784131109714508 -0.7149239778518677 -14.362913131713867 9.850040435791016 -1.8604897260665894 -0.7293193936347961 34.281410217285156 2.9166510105133057 -10.300619125366211 -17.63958168029785 -31.847118377685547 -0.4587879776954651 -0.358559787273407 -0.5016404986381531 88.04314422607422 -51.225547790527344 74.77169036865234 6.881283760070801 81.76762390136719 -7.0904998779296875 -2.048206090927124 -2.222411632537842 -4.175251483917236
-92.01624435866661 45.9765612092 -36.52435807615332 -19.040626525878906 -28.51418685913086 14.436692237854004 12.246906280517578 9.989737510681152 5.396950721740723 2.153049945831299 -7.065540313720703 1.7561707496643066 -0.591876208782196 12.857819557189941 5.137290954589844 4.2430100440979 -23.678592681884766 10.94925308227539 0.9962713122367859 0.6731723546981812 -0.9046367406845093 -0.7145886421203613 -0.9425944685935974 0.15493765473365784 0.8874644637107849 -0.6003917455673218 -0.028241239488124847 85.01387786865234 47.447357177734375 -36.63172149658203 -29.4720401763916 -38.83838653564453 86.16226959228516 -3.566619873046875 -42.868011474609375 -7.534515857696533 -1.1410620212554932 0.44276028871536255 -0.019764309749007225 -0.24965935945510864 0.1092398539185524 -0.37927815318107605 0.29008418321609497 0.8348323106765747 0.0706779807806015 7.428762912750244 5.112224102020264 1.6032875776290894 -0.7693229913711548 0.05966860055923462 0.061291325837373734 2.673546314239502 0.9365689158439636 0.7027077674865723 -0.03133339807391167 0.06815475970506668 -0.6455975770950317 9.305306434631348 1.3235031366348267 0.12862421572208405 -0.9445620179176331 -0.4460503160953522 -0.06021973490715027 2.153700828552246 0.08996561914682388 -0.19829227030277252 0.9304304122924805 -0.11888059973716736 -0.29923978447914124 -45.38790512084961 24.841611862182617 -33.25520706176758 16.559139251708984 -9.21806526184082 -31.227706909179688 1.3404139280319214 18.745840072631836 -1.8842748403549194 -0.45796024799346924 0.2464049905538559 0.46252280473709106 -0.8049630522727966 0.34663140773773193 -0.5541041493415833 0.05673100799322128 0.7015149593353271 0.3440125584602356 -8.140685081481934 4.826277256011963 0.45099762082099915 -0.2077079862356186 1.0832984447479248 -0.5337806940078735 -3.7378787994384766 2.1403093338012695 0.2764182686805725 0.2126205712556839 0.3636534512042999 0.002595531987026334 -10.407614707946777 0.8417881727218628 -0.0828915536403656 0.4302590787410736 -0.4458468556404114 -0.3170030415058136 -1.2888447046279907 -0.37034764885902405 0.2665728032588959 0.3410300314426422 0.32513195276260376 -0.5121111273765564 -13.849579811096191 10.45991039276123 -1.753294587135315 -0.6460236310958862 33.73777389526367 3.0204710960388184 -10.64675521850586 -17.888853073120117 -32.188026428222656 -0.5010402202606201 -0.38942721486091614 -0.323165625333786 88.47798156738281 -51.20743942260742 75.38561248779297 7.0340256690979 81.45938873291016 -7.00716495513916 -2.0926759243011475 -1.7796647548675537 -4.170953750610352
-93.96885819825961 45.79776734729657 -37.22315931917067 -19.664669036865234 -29.731624603271484 14.192021369934082 12.735124588012695 9.75004768371582 5.394753932952881 2.00838303565979 -7.058412075042725 1.8187804222106934 -0.3848819136619568 12.797975540161133 5.445021629333496 4.21999454498291 -23.740154266357422 11.481367111206055 1.063423991203308 0.6561964154243469 -0.9376198649406433 -0.6469101309776306 -0.9118286371231079 0.21248017251491547 0.8738868832588196 -0.5902710556983948 -0.02342095971107483 87.20375061035156 47.25644302368164 -39.23615264892578 -29.29141616821289 -39.32449722290039 86.71448516845703 -3.915139675140381 -44.583866119384766 -8.102356910705566 -1.180806279182434 0.44764378666877747 0.0734604075551033 -0.3049052059650421 0.144098699092865 -0.4080268144607544 0.1980714201927185 0.8103247284889221 0.13777965307235718 7.396968841552734 5.11179780960083 1.5372751951217651 -0.785240650177002 -0.02150777168571949 0.0838853046298027 2.680314064025879 0.9090093374252319 0.635084331035614 -0.03910403698682785 0.09702809154987335 -0.598459780216217 9.35971736907959 1.3385752439498901 0.24501477181911469 -0.9666303396224976 -0.4208560287952423 -0.0020958182867616415 2.178112030029297 -0.023252420127391815 -0.19272755086421967 0.889158308506012 0.004470837768167257 -0.28056058287620544 -45.565521240234375 22.957557678222656 -33.58601760864258 15.997601509094238 -8.751054763793945 -29.33811378479004 1.3043028116226196 22.059846878051758 -2.359027862548828 -0.41864731907844543 0.23327118158340454 0.4233948290348053 -0.7387475371360779 0.45508068799972534 -0.44742515683174133 0.12204205244779587 0.7636367082595825 0.2304878532886505 -8.151338577270508 4.868605136871338 0.39864376187324524 -0.25211140513420105 1.0689945220947266 -0.3910863697528839 -3.7253308296203613 2.115050792694092 0.35011571645736694 0.1874997615814209 0.36762312054634094 0.04226252809166908 -10.336441040039062 0.7853682637214661 0.05112536996603012 0.40507444739341736 -0.4187789559364319 -0.17243726551532745 -1.3655498027801514 -0.3646199107170105 0.2763683497905731 0.35919538140296936 0.30169305205345154 -0.4286649823188782 -13.432839393615723 11.33808708190918 -1.6423238515853882 -0.5418670177459717 32.85089111328125 3.0229485034942627 -10.868420600891113 -18.11200523376465 -32.55447769165039 -0.5352004170417786 -0.45252668857574463 -0.2950287461280823 88.72587585449219 -51.04386520385742 75.68838500976562 6.918309211730957 80.80381774902344 -6.849163055419922 -2.132169246673584 -1.2109010219573975 -4.412364482879639
